<svg width="672" height="672" viewBox="0 0 672 672" fill="none" xmlns="http://www.w3.org/2000/svg">
<g clip-path="url(#clip0_57_23)">
<mask id="mask0_57_23" style="mask-type:luminance" maskUnits="userSpaceOnUse" x="-122" y="-122" width="916" height="916">
<path fill-rule="evenodd" clip-rule="evenodd" d="M794 335.999C794 83.2224 588.778 -122 336.007 -122C83.2282 -122 -122 83.2224 -122 335.999C-122 588.772 83.2282 794 336.007 794C588.778 794 794 588.772 794 335.999Z" fill="white"/>
</mask>
<g mask="url(#mask0_57_23)">
<path fill-rule="evenodd" clip-rule="evenodd" d="M293.618 47.149C306.731 39.5798 321.366 35.7952 336.002 35.7952C350.637 35.7952 365.275 39.5798 378.389 47.149L564.954 154.861C591.184 170.012 607.337 197.997 607.337 228.274V443.698C607.337 473.987 591.184 501.972 564.954 517.11L378.385 624.823C352.159 639.961 319.845 639.961 293.618 624.823L107.055 517.11C80.8272 501.972 64.6703 473.987 64.6703 443.698V228.274C64.6703 197.997 80.8272 170.012 107.055 154.861L293.618 47.149ZM170.186 264.747L266.512 322.543L295.408 304.933C302.164 300.814 307.644 288.887 307.644 278.309V162.108C307.644 151.531 302.173 146.325 295.426 150.48L167.31 229.3C148.376 241.753 154.909 255.637 170.186 264.747ZM129.961 251.818V399.824C129.961 418.031 138.633 428.095 148.957 435.605L295.424 525.648C302.174 529.79 307.645 524.573 307.645 513.995V398.642C307.645 388.052 302.171 376.113 295.418 371.983L153.211 284.805C135.31 273.845 131.091 261.787 129.961 251.818ZM508.387 264.747C523.669 255.637 530.199 241.753 511.264 229.3L383.148 150.48C376.401 146.325 370.929 151.531 370.929 162.108V278.309C370.929 288.887 376.41 300.814 383.166 304.933L412.06 322.543L508.387 264.747ZM548.609 251.805C547.487 261.785 543.26 273.844 525.364 284.804L383.156 371.981C376.403 376.112 370.929 388.051 370.929 398.641V513.994C370.929 524.584 376.4 529.789 383.15 525.646L529.614 435.603C539.941 428.094 548.609 418.029 548.609 399.823V251.805Z" fill="#9333EA"/>
</g>
</g>
<defs>
<clipPath id="clip0_57_23">
<rect width="672" height="672" fill="white"/>
</clipPath>
</defs>
</svg>
