<svg width="287" height="96" viewBox="0 0 287 96" fill="none" xmlns="http://www.w3.org/2000/svg">
<path d="M263.629 0.000311999H22.8231C21.9453 0.000311999 21.0781 0.000311999 20.2026 0.00511198C19.4698 0.00991197 18.7428 0.0238559 18.003 0.0355919C16.3956 0.0545561 14.7921 0.196334 13.2062 0.459695C11.6226 0.728788 10.0886 1.23611 8.65612 1.96449C7.22536 2.69904 5.91803 3.6535 4.78157 4.79326C3.63914 5.92982 2.68683 7.24353 1.96127 8.68387C1.23371 10.1213 0.729216 11.6617 0.465214 13.2518C0.198703 14.8399 0.0552904 16.4463 0.0362644 18.0566C0.014051 18.7924 0.0117052 19.5307 0 20.2667V75.7407C0.0117052 76.4859 0.014051 77.2078 0.0362644 77.9533C0.0552963 79.5635 0.198709 81.1698 0.465214 82.7578C0.728487 84.3488 1.23301 85.8901 1.96127 87.3281C2.6865 88.7638 3.63894 90.0722 4.78157 91.2024C5.91373 92.3472 7.2219 93.3024 8.65612 94.0313C10.0886 94.7616 11.6225 95.272 13.2062 95.5452C14.7923 95.8064 16.3957 95.9483 18.003 95.9695C18.7428 95.9858 19.4698 95.9952 20.2026 95.9952C21.0781 96 21.9454 96 22.8231 96H263.629C264.489 96 265.363 96 266.224 95.9952C266.953 95.9952 267.701 95.9858 268.43 95.9695C270.035 95.9494 271.635 95.8076 273.218 95.5452C274.807 95.27 276.346 94.7598 277.785 94.0313C279.218 93.3019 280.525 92.3468 281.656 91.2024C282.796 90.0677 283.751 88.7603 284.485 87.3281C285.208 85.889 285.707 84.3479 285.967 82.7578C286.234 81.1696 286.382 79.5636 286.411 77.9533C286.42 77.2078 286.42 76.4859 286.42 75.7407C286.439 74.8688 286.439 74.0017 286.439 73.1156V22.8869C286.439 22.008 286.439 21.1362 286.42 20.2667C286.42 19.5307 286.42 18.7924 286.411 18.0565C286.382 16.4461 286.234 14.84 285.967 13.2517C285.707 11.6625 285.207 10.1223 284.485 8.68377C283.007 5.79676 280.664 3.44676 277.785 1.96427C276.346 1.23767 274.806 0.730487 273.218 0.459478C271.635 0.194958 270.035 0.0531305 268.43 0.0352559C267.701 0.0235439 266.953 0.00947997 266.224 0.00479998C265.363 0 264.489 0 263.629 0V0.000311999Z" fill="black"/>
<path d="M20.2143 93.9C19.485 93.9 18.7733 93.8906 18.0497 93.8743C16.5507 93.8547 15.0552 93.7239 13.5755 93.4829C12.1958 93.2446 10.8592 92.8014 9.60981 92.1679C8.3719 91.5397 7.24281 90.7159 6.26582 89.7281C5.27469 88.752 4.44953 87.6198 3.82304 86.3765C3.18964 85.1251 2.75129 83.7838 2.52326 82.3992C2.27701 80.9115 2.14378 79.4072 2.12471 77.8993C2.10954 77.3931 2.08967 75.7078 2.08967 75.7078V20.2667C2.08967 20.2667 2.11083 18.6073 2.12483 18.1198C2.14309 16.6142 2.27554 15.1122 2.52106 13.6268C2.74951 12.2385 3.1882 10.8933 3.82194 9.6378C4.44613 8.39536 5.26671 7.26236 6.25187 6.28273C7.23592 5.29379 8.36862 4.46575 9.60864 3.82881C10.8551 3.19733 12.1892 2.75727 13.5662 2.52336C15.0507 2.27992 16.5514 2.1483 18.0556 2.12962L20.2155 2.10031H266.212L268.397 2.13079C269.888 2.14855 271.375 2.27899 272.846 2.52101C274.237 2.75785 275.585 3.20098 276.846 3.83584C279.33 5.11947 281.351 7.15029 282.626 9.64365C283.25 10.8905 283.682 12.2247 283.907 13.601C284.156 15.0986 284.295 16.6124 284.323 18.1303C284.33 18.81 284.33 19.5401 284.33 20.2667C284.349 21.1667 284.349 22.0233 284.349 22.887V73.1156C284.349 73.9875 284.349 74.8383 284.33 75.6961C284.33 76.4765 284.33 77.1915 284.321 77.9273C284.293 79.4182 284.156 80.9049 283.912 82.3757C283.689 83.7703 283.253 85.1221 282.619 86.3837C281.988 87.6135 281.168 88.7359 280.188 89.7094C279.21 90.7025 278.079 91.5311 276.839 92.1634C275.581 92.8018 274.235 93.2466 272.846 93.4829C271.366 93.7252 269.871 93.856 268.372 93.8743C267.67 93.8906 266.936 93.9 266.224 93.9L263.629 93.9048L20.2143 93.9Z" fill="white"/>
<path d="M59.8344 47.7347C59.8888 43.5007 62.1026 39.5898 65.7003 37.3722C63.4204 34.1075 59.7386 32.1118 55.7656 31.9872C51.5856 31.5473 47.5333 34.495 45.4033 34.495C43.232 34.495 39.9525 32.0309 36.421 32.1037C31.7745 32.2542 27.5477 34.8388 25.287 38.9118C20.4731 47.2685 24.0639 59.5502 28.6753 66.3053C30.9826 69.613 33.679 73.3078 37.2074 73.1768C40.66 73.0332 41.9495 70.9694 46.1172 70.9694C50.2462 70.9694 51.456 73.1768 55.0559 73.0935C58.7608 73.0332 61.095 69.7711 63.3213 66.432C64.979 64.0751 66.2547 61.4703 67.1009 58.7139C62.7007 56.8479 59.8395 52.5249 59.8344 47.7347Z" fill="black"/>
<path d="M53.0349 27.5446C55.0549 25.1132 56.0501 21.9881 55.8091 18.8329C52.723 19.1579 49.8722 20.6368 47.8249 22.9749C45.8032 25.2817 44.779 28.2997 44.978 31.364C48.1055 31.3963 51.075 29.9886 53.0349 27.5446Z" fill="black"/>
<path fill-rule="evenodd" clip-rule="evenodd" d="M89.9271 65.1354H101.257L103.976 73.1909H108.857L98.125 43.3878H93.139L82.4071 73.1909H87.2061L89.9271 65.1354ZM100.082 61.4181H91.1006L95.5303 48.3447H95.6543L100.082 61.4181Z" fill="black"/>
<path fill-rule="evenodd" clip-rule="evenodd" d="M122.99 73.4181C128.43 73.4181 132.034 69.0798 132.034 62.3275C132.034 55.5939 128.409 51.2346 122.908 51.2346C120.078 51.143 117.427 52.619 116.008 55.076H115.926V51.4619H111.62V80.379H116.068V69.6165H116.171C117.53 72.089 120.178 73.5656 122.99 73.4181ZM121.735 55.0361C125.194 55.0361 127.462 57.9283 127.462 62.3275H127.462C127.462 66.7665 125.194 69.6376 121.735 69.6376C118.336 69.6376 116.05 66.7056 116.05 62.3275C116.05 57.9892 118.336 55.0361 121.735 55.0361Z" fill="black"/>
<path fill-rule="evenodd" clip-rule="evenodd" d="M146.843 73.4181C152.282 73.4181 155.888 69.0798 155.888 62.3275C155.888 55.5939 152.261 51.2346 146.761 51.2346C143.931 51.143 141.279 52.619 139.86 55.076H139.779V51.4619H135.473V80.379H139.921V69.6165H140.024C141.383 72.089 144.031 73.5656 146.843 73.4181ZM145.587 55.0361C149.047 55.0361 151.315 57.9283 151.315 62.3275C151.315 66.7665 149.047 69.6376 145.587 69.6376C142.189 69.6376 139.902 66.7056 139.902 62.3275C139.902 57.9892 142.189 55.0361 145.587 55.0361Z" fill="black"/>
<path d="M171.65 64.8868C171.98 67.8423 174.844 69.7828 178.757 69.7828C182.506 69.7828 185.204 67.8422 185.204 65.1774C185.204 62.8641 183.577 61.479 179.724 60.5297L175.872 59.5993C170.414 58.2774 167.88 55.718 167.88 51.5649C167.88 46.4227 172.349 42.8907 178.694 42.8907C184.977 42.8907 189.283 46.4227 189.428 51.5649H184.937C184.668 48.5907 182.216 46.7954 178.633 46.7954C175.049 46.7954 172.597 48.6118 172.597 51.2555C172.597 53.3626 174.163 54.6024 177.995 55.5515L181.27 56.3578C187.368 57.8039 189.9 60.2602 189.9 64.6195C189.9 70.1952 185.473 73.6874 178.427 73.6874C171.835 73.6874 167.384 70.2773 167.097 64.8866L171.65 64.8868Z" fill="black"/>
<path d="M199.505 46.3197V51.4619H203.626V54.9939H199.505V66.9728C199.505 68.8337 200.33 69.7009 202.142 69.7009C202.631 69.6923 203.12 69.6579 203.605 69.5977V73.1086C202.791 73.2612 201.963 73.3303 201.134 73.3149C196.747 73.3149 195.036 71.6625 195.036 67.4485V54.9939H191.885V51.4619H195.036V46.3197H199.505Z" fill="black"/>
<path fill-rule="evenodd" clip-rule="evenodd" d="M216.289 51.1947C210.027 51.1947 206.011 55.4908 206.011 62.3275C206.011 69.1829 209.987 73.4603 216.289 73.4603C222.594 73.4603 226.57 69.1829 226.57 62.3275C226.57 55.4907 222.573 51.1947 216.289 51.1947ZM216.289 54.8697C219.894 54.8697 222.037 57.6376 222.037 62.3275H222.037C222.037 67.036 219.894 69.7829 216.289 69.7829C212.685 69.7829 210.541 67.036 210.541 62.3275C210.541 57.6587 212.685 54.8697 216.289 54.8697Z" fill="black"/>
<path d="M230.237 51.4619H234.48V55.1603H234.583C235.175 52.7795 237.351 51.1409 239.796 51.2345C240.309 51.2327 240.82 51.2885 241.32 51.4009V55.5728C240.673 55.3745 239.998 55.2835 239.321 55.3033C238.014 55.2501 236.748 55.7726 235.857 56.7338C234.965 57.6949 234.538 58.9986 234.686 60.3025V73.1907H230.237L230.237 51.4619Z" fill="black"/>
<path fill-rule="evenodd" clip-rule="evenodd" d="M252.498 73.4602C257.4 73.4602 261.232 70.7532 261.83 66.8087L257.606 66.8087C256.795 68.8249 254.76 70.0677 252.601 69.8649C250.983 69.9247 249.416 69.2843 248.301 68.1068C247.185 66.9292 246.628 65.3279 246.771 63.7103V63.4407H262.078V61.9126C262.078 55.3244 258.307 51.1947 252.311 51.1947C246.215 51.1947 242.281 55.615 242.281 62.4306C242.281 69.2251 246.194 73.4602 252.498 73.4602ZM257.627 60.3236L246.792 60.3236C246.789 58.8565 247.369 57.4488 248.406 56.4132C249.442 55.3776 250.848 54.8 252.311 54.8087C253.763 54.7775 255.162 55.3548 256.171 56.4017C257.18 57.4485 257.708 58.87 257.627 60.3236Z" fill="black"/>
<path fill-rule="evenodd" clip-rule="evenodd" d="M95.5843 22.9178C94.2825 21.5394 92.4327 20.819 90.5442 20.9549H85.3852V35.2752H90.5442C94.7987 35.2752 97.2648 32.6454 97.2648 28.0705C97.5029 26.1872 96.8862 24.2961 95.5843 22.9178ZM90.2964 33.2498H87.6035V22.9784H90.2964C91.6388 22.9037 92.9443 23.4344 93.8558 24.4254C94.7673 25.4164 95.1894 26.7639 95.0066 28.0994C95.2037 29.4405 94.7876 30.7993 93.8739 31.7984C92.9601 32.7976 91.646 33.3307 90.2964 33.2498Z" fill="black"/>
<path fill-rule="evenodd" clip-rule="evenodd" d="M102.161 25.0289C100.512 26.0549 99.5859 27.9296 99.7707 29.8667C99.5823 31.8058 100.508 33.6841 102.158 34.7124C103.809 35.7406 105.899 35.7406 107.549 34.7124C109.2 33.6841 110.125 31.8058 109.937 29.8667C110.122 27.9296 109.195 26.0549 107.546 25.0289C105.897 24.0029 103.81 24.0029 102.161 25.0289ZM104.857 26.1542C106.699 26.1542 107.749 27.5241 107.749 29.8666H107.749C107.749 32.2186 106.699 33.5873 104.857 33.5873C103.008 33.5873 101.968 32.228 101.968 29.8667C101.968 27.5241 103.008 26.1542 104.857 26.1542Z" fill="black"/>
<path d="M123.45 35.2748H121.244L119.016 27.3155H118.848L116.629 35.2748H114.444L111.473 24.4678H113.63L115.561 32.7142H115.72L117.936 24.4678H119.977L122.193 32.7142H122.361L124.283 24.4678H126.41L123.45 35.2748Z" fill="black"/>
<path d="M128.909 24.4678H130.956V26.1846H131.115C131.668 24.9206 132.96 24.1474 134.332 24.2592C135.394 24.1791 136.435 24.5878 137.161 25.3697C137.887 26.1516 138.219 27.2221 138.063 28.2787V35.2747H135.936V28.8143C135.936 27.0776 135.183 26.2139 133.61 26.2139C132.889 26.1803 132.19 26.4638 131.695 26.9902C131.2 27.5166 130.96 28.2334 131.036 28.9526V35.2748H128.909L128.909 24.4678Z" fill="black"/>
<path d="M141.452 20.2491H143.579V35.2748H141.452V20.2491Z" fill="black"/>
<path fill-rule="evenodd" clip-rule="evenodd" d="M148.928 25.0287C147.278 26.0548 146.352 27.9295 146.536 29.8667C146.348 31.8059 147.274 33.6841 148.925 34.7123C150.575 35.7405 152.665 35.7405 154.316 34.7123C155.966 33.6841 156.892 31.8059 156.704 29.8667C156.889 27.9295 155.962 26.0548 154.313 25.0287C152.664 24.0027 150.577 24.0027 148.928 25.0287ZM151.623 26.1542C153.465 26.1542 154.515 27.5241 154.515 29.8666H154.515C154.515 32.2186 153.465 33.5873 151.623 33.5873C149.774 33.5873 148.734 32.228 148.734 29.8667C148.734 27.5241 149.774 26.1542 151.623 26.1542Z" fill="black"/>
<path fill-rule="evenodd" clip-rule="evenodd" d="M162.952 28.9924C160.388 29.1518 158.943 30.2733 158.943 32.2186C158.947 33.141 159.34 34.0188 160.024 34.635C160.709 35.2512 161.621 35.5483 162.536 35.4529C163.841 35.5134 165.078 34.8652 165.774 33.7561H165.942V35.2748H167.99V27.8909C167.99 25.6081 166.466 24.2593 163.763 24.2593C161.318 24.2593 159.577 25.4499 159.359 27.3061H161.419C161.655 26.5421 162.478 26.105 163.665 26.105C165.119 26.105 165.872 26.7495 165.872 27.8909V28.8237L162.952 28.9924ZM165.873 30.3916V31.2954C165.827 31.9844 165.503 32.6249 164.977 33.0704C164.451 33.5159 163.767 33.7281 163.081 33.6586C161.924 33.6586 161.082 33.0924 161.082 32.1195C161.082 31.1665 161.756 30.6601 163.24 30.5604L165.873 30.3916Z" fill="black"/>
<path fill-rule="evenodd" clip-rule="evenodd" d="M175.26 24.2886C172.536 24.2886 170.786 26.4518 170.786 29.8667C170.786 33.2897 172.518 35.453 175.26 35.4529C176.65 35.5043 177.954 34.778 178.645 33.5674H178.813V35.2748H180.851V20.2491H178.724V26.1846H178.565C177.923 24.9638 176.635 24.225 175.26 24.2886ZM175.863 33.5381C174.061 33.5381 172.983 32.1588 172.983 29.8666H172.983C172.983 27.5932 174.072 26.2045 175.863 26.2045C177.644 26.2045 178.764 27.6237 178.764 29.876C178.764 32.1389 177.656 33.5381 175.863 33.5381Z" fill="black"/>
<path fill-rule="evenodd" clip-rule="evenodd" d="M192.043 25.0289C190.394 26.0549 189.467 27.9296 189.652 29.8667C189.464 31.8058 190.389 33.6841 192.04 34.7124C193.691 35.7406 195.78 35.7406 197.431 34.7124C199.081 33.6841 200.007 31.8058 199.818 29.8667C200.003 27.9296 199.077 26.0549 197.428 25.0289C195.779 24.0029 193.692 24.0029 192.043 25.0289ZM194.739 26.1542C196.581 26.1542 197.63 27.5241 197.63 29.8666C197.63 32.2186 196.581 33.5873 194.739 33.5873C192.89 33.5873 191.85 32.228 191.85 29.8667C191.85 27.5241 192.89 26.1542 194.739 26.1542Z" fill="black"/>
<path d="M202.673 24.4678H204.72V26.1846H204.879C205.432 24.9206 206.724 24.1474 208.096 24.2592C209.158 24.1791 210.199 24.5878 210.925 25.3697C211.651 26.1516 211.982 27.2221 211.827 28.2787V35.2747H209.699V28.8143C209.699 27.0776 208.947 26.2139 207.373 26.2139C206.653 26.1803 205.954 26.4638 205.459 26.9902C204.964 27.5166 204.723 28.2334 204.8 28.9526V35.2748H202.673V24.4678Z" fill="black"/>
<path d="M223.847 21.7772V24.517H226.182V26.3135H223.847V31.8705C223.847 33.0026 224.312 33.4982 225.371 33.4982C225.642 33.4974 225.913 33.4809 226.182 33.449V35.2256C225.8 35.2941 225.413 35.3305 225.025 35.3346C222.659 35.3346 221.717 34.5002 221.717 32.4166V26.3134H220.006V24.5169H221.717V21.7772H223.847Z" fill="black"/>
<path d="M229.087 20.2491H231.196V26.2045H231.364C231.943 24.9295 233.258 24.1553 234.651 24.2686C235.707 24.211 236.734 24.6286 237.452 25.4077C238.17 26.1868 238.504 27.2463 238.363 28.2975V35.2748H236.233V28.8237C236.233 27.0975 235.432 26.2233 233.929 26.2233C233.189 26.1624 232.459 26.4322 231.936 26.9604C231.413 27.4887 231.149 28.2215 231.215 28.9631V35.2748H229.087L229.087 20.2491Z" fill="black"/>
<path fill-rule="evenodd" clip-rule="evenodd" d="M246.096 35.4834C248.202 35.7125 250.17 34.3954 250.766 32.3569L248.718 32.3568C248.208 33.2746 247.195 33.7922 246.154 33.667C245.352 33.6759 244.582 33.345 244.036 32.7555C243.489 32.1661 243.216 31.3729 243.284 30.571V30.4514H250.895V29.7072C250.895 26.3136 249.085 24.2592 246.086 24.2592C244.645 24.2469 243.27 24.8621 242.317 25.9453C241.363 27.0286 240.925 28.4733 241.117 29.9053C240.92 31.3333 241.359 32.7758 242.318 33.85C243.277 34.9241 244.658 35.5214 246.096 35.4834ZM248.728 28.8741H243.284C243.274 28.1289 243.565 27.4113 244.09 26.8842C244.616 26.3571 245.331 26.0651 246.075 26.0745C246.808 26.0576 247.514 26.3521 248.019 26.8852C248.525 27.4184 248.782 28.1406 248.728 28.8741Z" fill="black"/>
</svg>
